<svg width="10" height="18" viewBox="0 0 10 18" fill="none" xmlns="http://www.w3.org/2000/svg">
<path d="M9.5 0.653581V2.49353H8.52478C7.69597 2.49353 7.0687 2.74523 6.656 3.20594C6.25285 3.65599 6.12095 4.23194 6.12095 4.75425V6.86742V7.36742H6.62095H9.277L8.91787 9.62453H6.62095H6.12095V10.1245V17.5H3.46758V10.1253V9.62528H2.96758H0.5V7.36667H2.96758H3.46758V6.86667V4.38463C3.46758 3.0777 3.86868 2.12268 4.52106 1.49309C5.17625 0.860772 6.14373 0.5 7.3831 0.5C7.99645 0.5 8.63049 0.553052 9.11548 0.607066C9.25903 0.623053 9.38872 0.639033 9.5 0.653581Z" stroke="white"/>
</svg>
