<svg width="19" height="19" viewBox="0 0 19 19" fill="none" xmlns="http://www.w3.org/2000/svg">
<path d="M1.0552 5.69257C1.09705 4.77816 1.24023 4.18841 1.43386 3.6878L1.43646 3.68089C1.62834 3.17148 1.92892 2.71001 2.31729 2.32859L2.32274 2.32323L2.32809 2.31778C2.70983 1.92892 3.17147 1.62863 3.68043 1.43726L3.68921 1.4339C4.18867 1.23967 4.77727 1.09702 5.69245 1.05518M1.0552 5.69257C1.01121 6.66958 1 6.97244 1 9.5056C1 12.0394 1.01059 12.3415 1.05518 13.3188M1.0552 5.69257L1.0552 5.93902M1.43726 15.3308C1.62863 15.8397 1.92892 16.3014 2.31778 16.6831L2.32323 16.6885L2.32857 16.6939C2.71001 17.0823 3.1715 17.3829 3.68091 17.5748L3.68852 17.5776C4.18843 17.7715 4.77731 17.9142 5.69245 17.956M1.43726 15.3308L1.4339 15.322C1.23967 14.8225 1.09702 14.2339 1.05518 13.3188M1.43726 15.3308L1.42578 15.2704M1.05518 13.3188L1.07017 13.3977M1.05518 13.3188L1.05518 13.0717M1.42578 15.2704L1.07017 13.3977M1.42578 15.2704C1.27475 14.8713 1.11922 14.3146 1.07017 13.3977M1.42578 15.2704C1.43108 15.2844 1.43638 15.2982 1.44166 15.3118C1.6332 15.8281 1.93669 16.2957 2.33031 16.6808C2.71531 17.0744 3.18268 17.3778 3.69887 17.5693C4.11313 17.7307 4.69683 17.8993 5.69231 17.945C6.69691 17.9907 7.00728 18 9.5056 18C12.0039 18 12.3146 17.9907 13.3192 17.9449C14.3159 17.8993 14.8989 17.7297 15.3117 17.5696C15.8282 17.3781 16.2958 17.0746 16.6809 16.6808C17.0744 16.2958 17.3778 15.8285 17.5694 15.3123C17.7307 14.8981 17.8993 14.3144 17.945 13.3189C17.9907 12.3143 18 12.0033 18 9.5056C18 7.0079 17.9907 6.69664 17.9449 5.69204C17.899 4.69013 17.7279 4.10624 17.5671 3.69309C17.3568 3.15025 17.0901 2.7397 16.6803 2.32982C16.2712 1.92157 15.8617 1.65476 15.3185 1.44428C14.9039 1.28217 14.3196 1.11212 13.3192 1.06627C13.2322 1.06231 13.1504 1.05862 13.0719 1.05519M1.07017 13.3977C1.06878 13.3718 1.06748 13.3456 1.06627 13.3192C1.06231 13.2321 1.05862 13.1502 1.05518 13.0717M5.69245 1.05518C6.66969 1.01059 6.97244 1 9.5056 1C12.0387 1 12.3414 1.0112 13.3184 1.05519M5.69245 1.05518L5.93953 1.05518M13.3184 1.05519L13.0719 1.05519M13.3184 1.05519C14.2329 1.09702 14.8228 1.24018 15.3234 1.43383L15.3303 1.43646C15.8397 1.62834 16.3012 1.92892 16.6826 2.31729L16.6879 2.32269L16.6933 2.32798C17.0818 2.70944 17.3823 3.17104 17.574 3.68059L17.5773 3.68921C17.7715 4.18867 17.9142 4.77727 17.956 5.69245M5.93953 1.05518L13.0719 1.05519M5.93953 1.05518C6.76703 1.019 7.22441 1.01121 9.5056 1.01121C11.787 1.01121 12.2443 1.019 13.0719 1.05519M5.93953 1.05518C5.86099 1.05862 5.77912 1.06231 5.69204 1.06627C4.69533 1.11195 4.11231 1.28152 3.69952 1.44162C3.1811 1.6338 2.71191 1.9389 2.32596 2.33483C1.9199 2.74255 1.65412 3.15114 1.44431 3.69262C1.28219 4.10725 1.11211 4.69181 1.06626 5.69231C1.06231 5.7791 1.05863 5.86072 1.0552 5.93902M17.956 13.3188C17.9142 14.2339 17.7715 14.8228 17.5777 15.3227L17.5747 15.3303C17.3829 15.8397 17.0823 16.3012 16.6939 16.6826L16.6885 16.688L16.6831 16.6934C16.3014 17.0823 15.8397 17.3826 15.3308 17.574L15.322 17.5773C14.8225 17.7715 14.2339 17.9142 13.3188 17.956M1.05518 13.0717C1.019 12.2442 1.01121 11.7868 1.01121 9.5056C1.01121 7.22371 1.01899 6.76697 1.0552 5.93902M1.05518 13.0717L1.0552 5.93902M7.99283 13.1578C8.47244 13.3564 8.98648 13.4587 9.50561 13.4587C10.554 13.4587 11.5595 13.0422 12.3009 12.3009C13.0422 11.5595 13.4587 10.554 13.4587 9.5056C13.4587 8.45718 13.0422 7.4517 12.3009 6.71035C11.5595 5.969 10.554 5.55251 9.50561 5.55251C8.98648 5.55251 8.47244 5.65476 7.99283 5.85343C7.51322 6.05209 7.07743 6.34327 6.71035 6.71035C6.34328 7.07743 6.05209 7.51321 5.85343 7.99282C5.65477 8.47243 5.55252 8.98648 5.55252 9.5056C5.55252 10.0247 5.65477 10.5388 5.85343 11.0184C6.05209 11.498 6.34327 11.9338 6.71035 12.3009C7.07743 12.6679 7.51322 12.9591 7.99283 13.1578ZM6.70155 6.70154C7.44523 5.95786 8.45388 5.54006 9.50561 5.54006C10.5573 5.54006 11.566 5.95786 12.3097 6.70154C13.0534 7.44522 13.4712 8.45388 13.4712 9.5056C13.4712 10.5573 13.0534 11.566 12.3097 12.3097C11.566 13.0534 10.5573 13.4711 9.50561 13.4711C8.45388 13.4711 7.44523 13.0534 6.70155 12.3097C5.95786 11.566 5.54006 10.5573 5.54006 9.5056C5.54006 8.45388 5.95786 7.44522 6.70155 6.70154ZM15.7041 4.61679C15.7041 4.91781 15.5846 5.20651 15.3717 5.41937C15.1588 5.63222 14.8701 5.7518 14.5691 5.7518C14.2681 5.7518 13.9794 5.63222 13.7665 5.41937C13.5537 5.20651 13.4341 4.91781 13.4341 4.61679C13.4341 4.31576 13.5537 4.02707 13.7665 3.81421C13.9794 3.60136 14.2681 3.48177 14.5691 3.48177C14.8701 3.48177 15.1588 3.60136 15.3717 3.81421C15.5846 4.02707 15.7041 4.31576 15.7041 4.61679Z" stroke="white" strokeLinejoin="round"/>
</svg>
