<svg width="27" height="26" viewBox="0 0 27 26" fill="none" xmlns="http://www.w3.org/2000/svg">
<rect x="11.2666" y="11.2676" width="14.7333" height="14.7333" rx="2" fill="white"/>
<path d="M10.2799 4.3418V4.99946H7.52035V6.45527C7.69034 6.3555 7.88781 6.30562 8.11276 6.30562C8.44256 6.30562 8.77744 6.45222 9.11742 6.74541C9.4574 7.03861 9.62637 7.47841 9.62637 8.06481C9.62637 8.47814 9.49709 8.91386 9.23957 9.37097L8.71841 8.85889C9.00851 8.35902 9.15406 7.91923 9.15406 7.54051C9.15406 6.98567 8.93522 6.70775 8.49752 6.70775C8.18707 6.70775 7.86134 6.86147 7.51933 7.16994V10.2689H7.33407L6.79256 9.65093V7.67388C6.37013 8.03936 5.96806 8.22261 5.58839 8.22261C5.20872 8.22261 4.9064 8.10146 4.68043 7.85916C4.45548 7.61687 4.34249 7.3084 4.34249 6.93477C4.34249 6.60492 4.44632 6.3443 4.65498 6.15495C4.86365 5.96559 5.10693 5.86989 5.38481 5.86989C5.91513 5.86989 6.38438 6.11728 6.79256 6.61205V4.99946H3.82031V4.3418H10.2799ZM6.79459 6.92256L6.79256 6.83398C6.55539 6.62019 6.25104 6.5133 5.88053 6.5133C5.51001 6.5133 5.20057 6.58863 4.98885 6.73829C4.77713 6.88794 4.67127 7.05897 4.67127 7.25037C4.67127 7.41733 4.72624 7.55375 4.83617 7.66064C4.9461 7.76754 5.09675 7.82048 5.28811 7.82048C5.6403 7.82048 6.14212 7.52117 6.79357 6.92357L6.79459 6.92256Z" fill="white"/>
<path d="M25.9997 18.7098C25.9997 20.5372 26.0018 22.3656 25.9997 24.193C25.9977 25.3516 25.3656 25.995 24.2205 25.996C20.5306 25.999 16.8418 25.999 13.1519 25.996C12.0658 25.996 11.3961 25.3455 11.394 24.2684C11.3869 20.5616 11.3869 16.8559 11.394 13.1492C11.3961 12.0426 12.0607 11.3931 13.1784 11.39C15.1928 11.3839 17.2062 11.388 19.2206 11.389C19.3387 11.389 19.4608 11.3829 19.5738 11.4083C19.754 11.448 19.8792 11.5682 19.8883 11.7585C19.8985 11.9764 19.7621 12.1088 19.5616 12.1495C19.414 12.179 19.2582 12.1688 19.1066 12.1688C17.1431 12.1698 15.1806 12.1678 13.2171 12.1709C12.4455 12.1719 12.1737 12.4386 12.1737 13.2021C12.1717 16.8743 12.1707 20.5474 12.1737 24.2195C12.1737 24.9443 12.4567 25.2304 13.1936 25.2314C16.8662 25.2365 20.5388 25.2365 24.2113 25.2314C24.9411 25.2304 25.2333 24.9403 25.2343 24.2164C25.2394 20.5443 25.2394 16.8712 25.2343 13.1991C25.2343 12.4386 24.9503 12.1739 24.1797 12.1709C23.2494 12.1678 22.318 12.1688 21.3877 12.1709C21.1047 12.1709 20.7932 12.1617 20.7841 11.7952C20.7739 11.389 21.1057 11.389 21.405 11.39C22.3526 11.391 23.3003 11.3839 24.2479 11.392C25.3554 11.4012 25.9977 12.0568 25.9997 13.1777C26.0038 15.0224 26.0008 16.8671 26.0008 18.7118L25.9997 18.7098Z" fill="white"/>
<path d="M0.000162863 7.27754C0.000162863 5.45013 -0.000855029 3.62375 0.00219865 1.79635C0.00321654 0.641881 0.638381 0.00254513 1.78758 0.00152708C5.45912 -0.000509025 9.12963 -0.000509025 12.8012 0.00152708C13.9534 0.00152708 14.6059 0.640863 14.6089 1.7821C14.6151 4.47179 14.611 7.1625 14.6089 9.85219C14.6089 9.98657 14.6039 10.124 14.5733 10.2533C14.5346 10.4182 14.4054 10.5129 14.2425 10.5221C14.0542 10.5322 13.9076 10.4315 13.8669 10.2462C13.8313 10.0833 13.8313 9.91123 13.8313 9.74325C13.8292 7.12076 13.8313 4.49826 13.8292 1.87678C13.8292 1.0206 13.5737 0.767101 12.7035 0.766083C9.10011 0.764047 5.49576 0.764047 1.89242 0.766083C1.03027 0.766083 0.766635 1.02772 0.765617 1.88288C0.762564 5.50307 0.762564 9.12326 0.765617 12.7445C0.765617 13.5711 1.03231 13.8277 1.86596 13.8287C4.47176 13.8307 7.07655 13.8287 9.68235 13.8287C9.83503 13.8287 9.98771 13.8205 10.1384 13.8379C10.3664 13.8643 10.5272 13.9926 10.518 14.2318C10.5089 14.468 10.344 14.5861 10.1129 14.6034C9.99484 14.6126 9.87575 14.6085 9.75767 14.6085C7.13558 14.6085 4.51349 14.6095 1.89039 14.6085C0.608862 14.6075 0.00219865 13.9967 0.00118075 12.7088C0.000162863 10.8987 0.00118075 9.08865 0.00118075 7.27855L0.000162863 7.27754Z" fill="white"/>
<path d="M17.0627 4.44447C17.7508 4.51981 18.3279 4.42004 18.899 4.53813C20.4156 4.85373 21.4915 6.11611 21.5221 7.65846C21.5373 8.43625 21.5221 9.21506 21.5271 9.99285C21.5292 10.2789 21.4518 10.5243 21.1241 10.5151C20.8268 10.507 20.7535 10.2647 20.7535 10.0051C20.7525 9.27818 20.7607 8.55027 20.7505 7.82338C20.7291 6.25762 19.7336 5.26909 18.1681 5.25077C17.8505 5.2467 17.5329 5.25077 17.1431 5.25077C17.2948 5.52768 17.5268 5.61116 17.6877 5.76386C17.8536 5.92166 17.9299 6.09677 17.7732 6.29834C17.6215 6.49381 17.4179 6.50195 17.2337 6.36859C16.7003 5.98173 16.17 5.58774 15.6539 5.17849C15.376 4.95757 15.4239 4.70815 15.6906 4.50454C16.1873 4.1248 16.6922 3.75423 17.1919 3.37857C17.3976 3.22485 17.6032 3.20245 17.7711 3.41828C17.9442 3.64123 17.8424 3.82957 17.65 3.98533C17.4831 4.11971 17.3131 4.25104 17.0637 4.44651L17.0627 4.44447Z" fill="white"/>
<path d="M8.83035 21.5236C8.4293 21.5236 8.02825 21.5337 7.6272 21.5215C5.92732 21.4727 4.53587 20.1064 4.4809 18.4124C4.45545 17.6183 4.47886 16.8222 4.47276 16.0271C4.47072 15.7461 4.52671 15.4855 4.85447 15.4824C5.18426 15.4794 5.24737 15.7441 5.24737 16.022C5.24737 16.7499 5.23923 17.4768 5.25043 18.2047C5.27587 19.7379 6.27544 20.7264 7.81144 20.7488C8.14022 20.7539 8.469 20.7488 8.84562 20.7488C8.70311 20.4668 8.48427 20.3915 8.32853 20.249C8.16261 20.0963 8.06693 19.9303 8.21453 19.7175C8.35601 19.5139 8.55959 19.4875 8.74688 19.6218C9.29553 20.0168 9.84112 20.418 10.3684 20.8415C10.6198 21.0441 10.572 21.2935 10.3246 21.4828C9.81465 21.8738 9.29858 22.2566 8.78149 22.6383C8.56977 22.7951 8.36619 22.7788 8.21147 22.5559C8.06388 22.3431 8.1616 22.17 8.33464 22.0285C8.50462 21.8901 8.68072 21.7597 8.85376 21.6254C8.84562 21.5908 8.83748 21.5572 8.82933 21.5225L8.83035 21.5236Z" fill="white"/>
<path d="M16.9463 20.4021L15.9785 23.4005H14.7344L17.9008 13.8672H19.3532L22.5344 23.4005H21.2489L20.253 20.4021H16.9477H16.9463ZM20.0019 19.4409L19.0887 16.6964C18.8819 16.0737 18.743 15.5085 18.6041 14.9568H18.576C18.4371 15.5221 18.2849 16.1024 18.1062 16.6828L17.193 19.4409H20.0004H20.0019Z" fill="#21335B"/>
</svg>
