<svg width="16" height="16" viewBox="0 0 16 16" fill="none" xmlns="http://www.w3.org/2000/svg">
<path d="M4.17647 5.64821H1.23529V15.06H4.17647V5.64821ZM4.44118 2.41291C4.44273 2.19044 4.40044 1.96983 4.31673 1.7637C4.23302 1.55757 4.10953 1.36994 3.95331 1.21153C3.79709 1.05313 3.6112 0.927043 3.40625 0.84048C3.20129 0.753917 2.9813 0.708571 2.75882 0.707031H2.70588C2.25345 0.707031 1.81956 0.886758 1.49964 1.20667C1.17973 1.52659 1 1.96049 1 2.41291C1 2.86534 1.17973 3.29924 1.49964 3.61915C1.81956 3.93907 2.25345 4.1188 2.70588 4.1188C2.92837 4.12427 3.14976 4.08585 3.3574 4.00573C3.56504 3.92561 3.75486 3.80537 3.91601 3.65187C4.07716 3.49836 4.20648 3.31461 4.29659 3.11111C4.3867 2.90761 4.43583 2.68835 4.44118 2.46585V2.41291ZM15.3529 9.34233C15.3529 6.51291 13.5529 5.41291 11.7647 5.41291C11.1792 5.3836 10.5962 5.5083 10.074 5.7746C9.55171 6.04089 9.10839 6.43946 8.78824 6.93056H8.70588V5.64821H5.94118V15.06H8.88235V10.0541C8.83984 9.5414 9.00133 9.03265 9.33176 8.63834C9.66218 8.24404 10.1348 7.99603 10.6471 7.94821H10.7588C11.6941 7.94821 12.3882 8.53644 12.3882 10.0188V15.06H15.3294L15.3529 9.34233Z" stroke="white" strokeLinejoin="round"/>
</svg>
