<svg width="127" height="25" viewBox="0 0 127 25" fill="none" xmlns="http://www.w3.org/2000/svg">
<path d="M5.75195 19.7673H19.7676C19.7676 14.8359 16.156 10.7498 11.4342 10.0059C11.3905 14.1726 9.1194 17.8049 5.75195 19.7673Z" fill="#F1F1F1"/>
<path d="M9.76146 8.3334C9.01748 3.6116 4.9314 0 0 0V14.0157C1.96243 10.6505 5.59476 8.37716 9.76146 8.3334Z" fill="#F1F1F1"/>
<path d="M9.88353 9.88281C4.42467 9.88281 0 14.3075 0 19.7663C5.45886 19.7663 9.88353 15.3417 9.88353 9.88281Z" fill="#F1F1F1"/>
<path d="M31.3252 0.964966H35.6877C38.864 0.964966 41.3584 1.81259 43.1735 3.50783C44.9885 5.20307 45.896 7.50869 45.896 10.427C45.896 12.0094 45.5689 13.4881 44.9148 14.8609C44.2606 16.2337 43.3623 17.3277 42.2176 18.1454C41.3838 18.7489 40.4164 19.1842 39.32 19.456C38.2236 19.7278 36.8647 19.8637 35.2477 19.8637H31.3252V0.967268V0.964966ZM34.1652 3.46867V17.3185H35.713C38.0716 17.3185 39.8774 16.7266 41.135 15.5427C42.3926 14.3587 43.0191 12.6543 43.0191 10.4247C43.0191 8.19508 42.3972 6.59657 41.1534 5.34587C39.9097 4.09517 38.2121 3.46867 36.0608 3.46867H34.1629H34.1652Z" fill="#F1F1F1"/>
<path d="M48.416 4.60547H50.9727V7.4063H48.416V4.60547ZM50.9727 9.52305V19.8626L48.416 20.0953V9.79484L50.9727 9.52305Z" fill="#F1F1F1"/>
<path d="M62.7947 9.65316L62.2902 11.4083H61.5278C61.8112 11.7952 62.0277 12.1983 62.1728 12.6152C62.3202 13.0321 62.3916 13.4467 62.3916 13.8613C62.3916 14.5062 62.2327 15.0959 61.9148 15.6303C61.5969 16.1646 61.1478 16.5908 60.572 16.9086C61.0718 17.314 61.4564 17.8023 61.7282 18.3735C62 18.9447 62.1359 19.5597 62.1359 20.2139C62.1359 21.4369 61.7006 22.4619 60.8322 23.2934C59.9639 24.1249 58.8882 24.5395 57.6053 24.5395C56.7369 24.5395 55.9492 24.3529 55.2421 23.9775C54.5373 23.602 53.9246 23.0423 53.4087 22.2938L54.9956 20.3705C55.2536 20.9394 55.606 21.3747 56.0552 21.6811C56.502 21.9874 57.0018 22.1394 57.5523 22.1394C58.1558 22.1394 58.6533 21.9529 59.0495 21.5774C59.4456 21.202 59.6437 20.7413 59.6437 20.1908C59.6437 19.5367 59.4295 19.0023 58.9988 18.59C58.5681 18.1777 58.0176 17.9704 57.3473 17.9704C56.8913 17.9704 56.4375 18.058 55.9861 18.2353C55.5346 18.4127 55.0716 18.6845 54.5995 19.0553L55.1292 17.1712C54.5258 16.7589 54.0628 16.2522 53.7357 15.6556C53.4087 15.0567 53.2451 14.4187 53.2451 13.7392C53.2451 12.5162 53.6804 11.4981 54.5488 10.6804C55.4171 9.86277 56.5112 9.45508 57.8264 9.45508C58.1097 9.45508 58.6418 9.50114 59.4203 9.59097C60.1988 9.6808 60.8299 9.72687 61.3113 9.72687C61.5532 9.72687 61.7927 9.72226 62.0346 9.71305C62.2764 9.70384 62.5298 9.68771 62.797 9.66238L62.7947 9.65316ZM57.8241 11.7446C57.2483 11.7446 56.7646 11.945 56.373 12.3457C55.9815 12.7465 55.7857 13.2348 55.7857 13.8107C55.7857 14.3865 55.9838 14.8656 56.3799 15.2686C56.7761 15.6717 57.2575 15.8744 57.8264 15.8744C58.3953 15.8744 58.8629 15.6694 59.2591 15.2617C59.6552 14.854 59.8533 14.3681 59.8533 13.8107C59.8533 13.2532 59.6552 12.7672 59.2591 12.3596C58.8629 11.9519 58.3861 11.7469 57.8264 11.7469L57.8241 11.7446Z" fill="#F1F1F1"/>
<path d="M64.8613 4.60547H67.418V7.4063H64.8613V4.60547ZM67.418 9.52305V19.8626L64.8613 20.0953V9.79484L67.418 9.52305Z" fill="#F1F1F1"/>
<path d="M71.3662 9.49609L73.7663 15.3442L76.2193 9.49609L78.7115 9.92221L74.3744 20.0153H73.1352L68.7197 9.92221L71.3662 9.49609Z" fill="#F1F1F1"/>
<path d="M87.539 13.1258V19.8377L85.1896 20.0957V19.1006C84.8971 19.4622 84.5493 19.7363 84.1439 19.9275C83.7385 20.1187 83.2756 20.2108 82.7504 20.2108C81.7876 20.2108 80.9815 19.8745 80.3365 19.2043C79.6916 18.534 79.3691 17.6933 79.3691 16.6868C79.3691 15.6272 79.6939 14.7658 80.3434 14.0978C80.993 13.4299 81.8429 13.0982 82.8932 13.0982C83.3654 13.0982 83.7892 13.1742 84.1577 13.3239C84.5286 13.4736 84.8372 13.697 85.086 13.9896V13.0728C85.086 12.5822 84.9524 12.2414 84.6852 12.0525C84.418 11.8636 83.932 11.7692 83.2272 11.7692C82.8218 11.7692 82.4164 11.806 82.0064 11.8797C81.5964 11.9534 81.1865 12.0594 80.7742 12.1953L81.3799 9.74225C81.9304 9.66394 82.4141 9.60866 82.831 9.57411C83.2479 9.53956 83.6211 9.52344 83.9481 9.52344C85.2564 9.52344 86.1824 9.76298 86.7236 10.2398C87.2649 10.7166 87.5367 11.6793 87.5367 13.1258H87.539ZM83.4737 15.1527C83.0084 15.1527 82.6237 15.2932 82.3174 15.5719C82.011 15.8506 81.859 16.1892 81.859 16.5854C81.859 16.9816 82.0087 17.3294 82.3105 17.6058C82.6122 17.8822 82.9992 18.0181 83.4713 18.0181C83.9435 18.0181 84.3213 17.8799 84.6276 17.6058C84.934 17.3294 85.086 16.9908 85.086 16.5854C85.086 16.18 84.9317 15.8506 84.6207 15.5719C84.3121 15.2932 83.9274 15.1527 83.4713 15.1527H83.4737Z" fill="#F1F1F1"/>
<path d="M95.5156 9.6014V12.1189C94.456 12.135 93.7305 12.3331 93.3343 12.7132C92.9382 13.0909 92.7401 13.8027 92.7401 14.8437V19.865L90.1719 20.0976V9.79718L92.7401 9.52539V10.8544C93.0671 10.4329 93.4587 10.1196 93.9148 9.91235C94.3708 9.70505 94.9052 9.6037 95.5156 9.6037V9.6014Z" fill="#F1F1F1"/>
<path d="M102.862 11.3841L101.365 12.7523C101.192 12.2963 100.96 11.9508 100.667 11.7135C100.375 11.4763 100.031 11.3588 99.6352 11.3588C99.3773 11.3588 99.163 11.4394 98.9972 11.5983C98.8314 11.7573 98.7461 11.9577 98.7461 12.1995C98.7461 12.6394 99.246 13.0425 100.243 13.4134C100.441 13.4825 100.596 13.5377 100.709 13.5815C101.492 13.874 102.063 14.261 102.425 14.7424C102.786 15.2238 102.966 15.8318 102.966 16.562C102.966 17.587 102.625 18.4369 101.945 19.1118C101.266 19.7866 100.4 20.1252 99.3519 20.1252C98.7162 20.1252 98.1335 19.9962 97.6083 19.7383C97.0832 19.4803 96.6409 19.1095 96.2793 18.6281L97.7373 16.8591C97.9446 17.2115 98.1957 17.4902 98.4928 17.6906C98.7899 17.8933 99.1009 17.9947 99.4279 17.9947C99.755 17.9947 100.034 17.8841 100.266 17.6653C100.499 17.4465 100.614 17.1862 100.614 16.8845C100.614 16.5827 100.522 16.3409 100.338 16.1543C100.153 15.9677 99.7343 15.7604 99.0801 15.5278C98.0989 15.1846 97.4056 14.7861 97.0025 14.3347C96.5995 13.8832 96.3968 13.2959 96.3968 12.5726C96.3968 11.6859 96.7238 10.9258 97.378 10.2947C98.0321 9.66126 98.8152 9.3457 99.7274 9.3457C100.382 9.3457 100.987 9.52536 101.547 9.88698C102.107 10.2486 102.544 10.7484 102.864 11.3841H102.862Z" fill="#F1F1F1"/>
<path d="M105.172 4.60547H107.729V7.4063H105.172V4.60547ZM107.729 9.52305V19.8626L105.172 20.0953V9.79484L107.729 9.52305Z" fill="#F1F1F1"/>
<path d="M113.305 5.27734V9.62831H115.344V12.0929H113.305V15.1908C113.305 16.1467 113.45 16.7847 113.738 17.1072C114.026 17.4296 114.563 17.5909 115.346 17.5909V20.0946H115.139C113.512 20.0946 112.375 19.7813 111.725 19.1525C111.076 18.5237 110.751 17.4066 110.751 15.7966V12.0929H109.795V9.62831H110.751V6.59484L113.307 5.27734H113.305Z" fill="#F1F1F1"/>
<path d="M118.545 9.42223L121.578 16.1341L124.573 9.4729L127 10.157L120.236 24.6518L117.642 24.2763L120.12 19.1008L116.027 10.104L118.545 9.41992V9.42223Z" fill="#F1F1F1"/>
</svg>
