<svg width="24" height="17" viewBox="0 0 24 17" fill="none" xmlns="http://www.w3.org/2000/svg">
<path d="M11.8999 17L1.69996 17C0.759966 17 7.05719e-05 16.2384 7.05719e-05 15.3001C7.05719e-05 14.3618 0.759966 13.6002 1.69996 13.6002L11.8999 13.6002C12.8383 13.6002 13.5998 14.3618 13.5998 15.3001C13.5998 16.2384 12.8383 17 11.8999 17ZM15.3 3.3998L1.69982 3.3998C0.759819 3.3998 -7.62939e-05 2.6399 -7.62939e-05 1.6999C-7.62939e-05 0.759899 0.759819 0 1.69982 0L15.3 0C16.2383 0 16.9999 0.759899 16.9999 1.6999C16.9999 2.6399 16.2383 3.3998 15.3 3.3998ZM22.0999 10.1997L1.69996 10.1997C0.759966 10.1997 7.05719e-05 9.43811 7.05719e-05 8.49978C7.05719e-05 7.55978 0.759966 6.79988 1.69996 6.79988L22.0999 6.79988C23.0382 6.79988 23.7998 7.55978 23.7998 8.49978C23.7998 9.43811 23.0382 10.1997 22.0999 10.1997Z" fill="white"/>
</svg>
