<svg width="12" height="12" viewBox="0 0 12 12" fill="none" xmlns="http://www.w3.org/2000/svg">
<circle cx="6" cy="6" r="6" fill="#51AF8B"/>
<path d="M7.29568 9.43988C7.19873 9.34934 7.10098 9.2588 7.00404 9.16826C6.77007 8.95113 6.53692 8.7332 6.30296 8.51606C6.02093 8.25405 5.7397 7.99205 5.45767 7.73006C5.21329 7.50251 4.96892 7.27497 4.72455 7.04822C4.60596 6.93765 4.48979 6.82388 4.368 6.7165C4.3664 6.7149 4.36479 6.7133 4.36319 6.7117C4.38643 6.76858 4.41046 6.82467 4.4337 6.88156V6.6524L4.19333 6.89277H4.66045C4.82071 6.89277 4.98254 6.89838 5.14279 6.89117C5.82623 6.85992 6.46642 6.46251 6.78444 5.85358C7.10493 5.23984 7.0801 4.47707 6.69871 3.89533C6.51443 3.61489 6.26044 3.37613 5.96078 3.22229C5.68115 3.07807 5.37267 3.00195 5.05779 3.00195H4.0234H3.99055C3.86476 3.00195 3.74458 3.11252 3.75019 3.24232C3.7558 3.37292 3.85595 3.48268 3.99055 3.48268H5.0033C5.09785 3.48268 5.19239 3.48509 5.28614 3.4971C5.26451 3.4939 5.24368 3.4915 5.22204 3.48829C5.37267 3.50832 5.5193 3.54838 5.65951 3.60687L5.60182 3.58284C5.70277 3.6261 5.79973 3.67818 5.89027 3.73907C5.9135 3.7551 5.93674 3.77112 5.95917 3.78795C5.9736 3.79837 6.00484 3.82641 5.94395 3.77593C5.95437 3.78474 5.96558 3.79356 5.9768 3.80237C6.01846 3.83682 6.05933 3.87368 6.09778 3.91214C6.13624 3.9506 6.1731 3.99066 6.20755 4.03312C6.21396 4.04114 6.23239 4.05636 6.23399 4.06598C6.23159 4.05396 6.19473 4.0147 6.22198 4.05075C6.2388 4.07318 6.25483 4.09642 6.27085 4.11966C6.33254 4.211 6.38462 4.30715 6.42709 4.40811L6.40305 4.35042C6.46154 4.49063 6.5016 4.63725 6.52163 4.78788C6.51843 4.76625 6.51603 4.74542 6.51282 4.72378C6.53205 4.8712 6.53205 5.02104 6.51282 5.16847C6.51603 5.14684 6.51843 5.12601 6.52163 5.10437C6.5016 5.255 6.46154 5.40163 6.40305 5.54184L6.42709 5.48415C6.38382 5.5851 6.33174 5.68205 6.27085 5.7726C6.25482 5.79583 6.2388 5.81907 6.22198 5.8415C6.21156 5.85592 6.18352 5.88717 6.23399 5.82628C6.22518 5.83669 6.21637 5.84791 6.20755 5.85913C6.1731 5.90079 6.13624 5.94166 6.09778 5.98011C6.05933 6.01857 6.01926 6.05543 5.9768 6.08988C5.96879 6.09629 5.95356 6.11472 5.94395 6.11632C5.95597 6.11392 5.99523 6.07706 5.95917 6.10431C5.93674 6.12113 5.9135 6.13716 5.89027 6.15318C5.79893 6.21487 5.70278 6.26695 5.60182 6.30942C5.62105 6.30141 5.64028 6.29339 5.65951 6.28538C5.51929 6.34387 5.37267 6.38393 5.22204 6.40396C5.24368 6.40076 5.26451 6.39835 5.28614 6.39515C5.14352 6.41358 5.00011 6.40957 4.85669 6.40957H4.32628H4.19328C4.06348 6.40957 3.95291 6.51934 3.95291 6.64994C3.95291 6.72445 3.95131 6.79897 3.95291 6.87348C3.95452 6.94799 3.98576 7.0137 4.03865 7.06337C4.08992 7.11065 4.1412 7.15872 4.19248 7.20599C4.41603 7.41351 4.63957 7.62183 4.8631 7.82935C5.15955 8.10496 5.45601 8.38059 5.75246 8.65701C6.01927 8.90539 6.28689 9.15377 6.5537 9.40215C6.6859 9.52554 6.8165 9.64972 6.9503 9.77152C6.9519 9.77312 6.9543 9.77472 6.95591 9.77632C7.04805 9.86205 7.20588 9.87407 7.29563 9.77632C7.38137 9.68658 7.39419 9.53115 7.29563 9.4398L7.29568 9.43988Z" fill="white"/>
<path d="M3.99055 3.48215H4.4136H5.43035H6.65542H7.71786C7.89012 3.48215 8.06239 3.48536 8.23385 3.48215H8.24106C8.36685 3.48215 8.48704 3.37158 8.48143 3.24179C8.47582 3.11119 8.37566 3.00142 8.24106 3.00142H7.81801H6.80126H5.57619H4.51376C4.34149 3.00142 4.16923 2.99822 3.99776 3.00142H3.99055C3.86476 3.00142 3.74458 3.11199 3.75019 3.24179C3.7558 3.37239 3.85595 3.48215 3.99055 3.48215Z" fill="white"/>
<path d="M3.99055 5.18918H4.4136H5.43035H6.65542H7.71786C7.89012 5.18918 8.06239 5.19239 8.23385 5.18918H8.24106C8.36685 5.18918 8.48704 5.07861 8.48143 4.94882C8.47582 4.81822 8.37566 4.70846 8.24106 4.70846H7.81801H6.80126H5.57619H4.51376C4.34149 4.70846 4.16923 4.70525 3.99776 4.70846H3.99055C3.86476 4.70846 3.74458 4.81903 3.75019 4.94882C3.7558 5.07862 3.85595 5.18918 3.99055 5.18918Z" fill="white"/>
</svg>
