<svg width="12" height="12" viewBox="0 0 12 12" fill="none" xmlns="http://www.w3.org/2000/svg">
<circle cx="6" cy="6" r="6" fill="#51AF8B"/>
<path d="M9.83713 4.24806C9.93536 4.20795 10 4.10952 10 4C10 3.89048 9.93536 3.79203 9.83713 3.75194L5.59428 2.01858C5.53351 1.99381 5.4665 1.99381 5.40565 2.01858L1.1628 3.75194C1.06464 3.79204 1 3.89048 1 4C1 4.10952 1.06464 4.20796 1.16287 4.24806L2.8 4.91689V7.3333C2.8 7.43627 2.85726 7.53018 2.94701 7.57429L5.38987 8.7743C5.42481 8.79142 5.46233 8.79998 5.5 8.79998C5.53767 8.79998 5.57519 8.79142 5.61013 8.7743L8.05299 7.57429C8.14274 7.53017 8.2 7.43627 8.2 7.3333V4.91689L8.58571 4.7593V7.72771L7.74274 8.60191C7.64229 8.70608 7.64229 8.87483 7.74274 8.979L8.65192 9.92187C8.70208 9.97396 8.76787 10 8.83366 10C8.89945 10 8.96524 9.97396 9.01547 9.92187L9.92465 8.979C10.0251 8.87484 10.0251 8.70609 9.92465 8.60191L9.09999 7.7467V4.54914L9.83713 4.24806ZM8.83367 9.35631L8.28811 8.79053L8.83367 8.22476L9.37924 8.79053L8.83367 9.35631ZM5.5 2.55318L9.04122 3.99992L5.5 5.44666L1.95878 3.99992L5.5 2.55318ZM7.68571 7.16448L5.5 8.23822L3.31429 7.16448V5.12674L5.40578 5.98113C5.43612 5.99355 5.46805 5.9998 5.50005 5.9998C5.53205 5.9998 5.56398 5.99355 5.59433 5.9812L7.68582 5.12673L7.68571 7.16448Z" fill="white"/>
</svg>
