<svg width="151" height="149" viewBox="0 0 151 149" fill="none" xmlns="http://www.w3.org/2000/svg">
<circle cx="76.5" cy="74.5" r="74.5" fill="#509E82"/>
<circle cx="15" cy="31" r="15" fill="#115BA9"/>
<path d="M10.634 36.084C12.902 36.084 14.554 34.222 14.554 31.1C14.554 27.978 12.902 26.116 10.634 26.116C8.366 26.116 6.728 27.978 6.728 31.1C6.728 34.222 8.366 36.084 10.634 36.084ZM10.634 35.16C8.926 35.16 7.75 33.718 7.75 31.1C7.75 28.482 8.926 27.04 10.634 27.04C12.342 27.04 13.518 28.482 13.518 31.1C13.518 33.718 12.342 35.16 10.634 35.16ZM17.2722 35.104L20.6042 31.828C21.9202 30.54 22.2142 29.7 22.2142 28.762C22.2142 27.124 20.9542 26.116 18.9662 26.116C17.4682 26.116 16.2502 26.62 15.4942 27.516L16.2082 28.132C16.8522 27.39 17.7342 27.04 18.8822 27.04C20.3802 27.04 21.1782 27.74 21.1782 28.874C21.1782 29.546 20.9682 30.204 19.8622 31.296L15.7882 35.286V36H22.6622V35.104H17.2722Z" fill="white"/>
<path d="M37.382 51.168C40.182 51.168 41.54 49.768 41.54 48.13C41.54 44.532 35.842 45.778 35.842 43.972C35.842 43.356 36.36 42.852 37.704 42.852C38.572 42.852 39.51 43.104 40.42 43.622L41.12 41.9C40.21 41.326 38.95 41.032 37.718 41.032C34.932 41.032 33.588 42.418 33.588 44.084C33.588 47.724 39.286 46.464 39.286 48.298C39.286 48.9 38.74 49.348 37.396 49.348C36.22 49.348 34.988 48.928 34.162 48.326L33.392 50.034C34.26 50.706 35.828 51.168 37.382 51.168ZM47.2057 49.096C46.9677 49.278 46.6457 49.376 46.3237 49.376C45.7357 49.376 45.3857 49.026 45.3857 48.382V45.316H47.2617V43.636H45.3857V41.802H43.2017V43.636H42.0397V45.316H43.2017V48.41C43.2017 50.202 44.2377 51.112 46.0157 51.112C46.6877 51.112 47.3457 50.958 47.7937 50.636L47.2057 49.096ZM56.1653 47.262C56.1653 44.84 54.4573 43.356 52.2453 43.356C49.9493 43.356 48.2273 44.98 48.2273 47.234C48.2273 49.474 49.9213 51.112 52.5253 51.112C53.8833 51.112 54.9333 50.692 55.6333 49.894L54.4713 48.634C53.9533 49.124 53.3793 49.362 52.5813 49.362C51.4333 49.362 50.6353 48.788 50.4253 47.85H56.1233C56.1373 47.668 56.1653 47.43 56.1653 47.262ZM52.2593 45.008C53.2393 45.008 53.9533 45.624 54.1073 46.576H50.3973C50.5513 45.61 51.2653 45.008 52.2593 45.008ZM62.0713 43.356C61.0633 43.356 60.2513 43.678 59.7053 44.336V43.468H57.6193V53.716H59.8033V50.202C60.3633 50.818 61.1333 51.112 62.0713 51.112C64.1853 51.112 65.8233 49.6 65.8233 47.234C65.8233 44.868 64.1853 43.356 62.0713 43.356ZM61.6933 49.32C60.6013 49.32 59.7753 48.536 59.7753 47.234C59.7753 45.932 60.6013 45.148 61.6933 45.148C62.7853 45.148 63.6113 45.932 63.6113 47.234C63.6113 48.536 62.7853 49.32 61.6933 49.32ZM73.8962 49.152L76.1502 47.024C77.5222 45.75 77.7882 44.882 77.7882 43.93C77.7882 42.152 76.3322 41.032 74.1482 41.032C72.3842 41.032 71.0122 41.746 70.2562 42.852L71.9082 43.916C72.3842 43.258 73.0982 42.936 73.9382 42.936C74.9742 42.936 75.5062 43.384 75.5062 44.154C75.5062 44.63 75.3522 45.134 74.4842 45.96L70.7042 49.53V51H78.1102V49.152H73.8962ZM80.334 46.086C81.09 46.086 81.692 45.512 81.692 44.714C81.692 43.902 81.09 43.37 80.334 43.37C79.578 43.37 78.976 43.902 78.976 44.714C78.976 45.512 79.578 46.086 80.334 46.086ZM80.334 51.112C81.09 51.112 81.692 50.538 81.692 49.74C81.692 48.928 81.09 48.396 80.334 48.396C79.578 48.396 78.976 48.928 78.976 49.74C78.976 50.538 79.578 51.112 80.334 51.112ZM41.316 59.096V58.2H34.596V68H35.632V63.842H40.7V62.946H35.632V59.096H41.316ZM43.6127 59.026C44.0327 59.026 44.3407 58.704 44.3407 58.298C44.3407 57.92 44.0187 57.612 43.6127 57.612C43.2067 57.612 42.8847 57.934 42.8847 58.312C42.8847 58.704 43.2067 59.026 43.6127 59.026ZM43.1087 68H44.1027V60.636H43.1087V68ZM46.8684 68H47.8624V57.612H46.8684V68ZM50.6282 68H51.6222V57.612H50.6282V68ZM54.892 59.026C55.312 59.026 55.62 58.704 55.62 58.298C55.62 57.92 55.298 57.612 54.892 57.612C54.486 57.612 54.164 57.934 54.164 58.312C54.164 58.704 54.486 59.026 54.892 59.026ZM54.388 68H55.382V60.636H54.388V68ZM61.8997 60.58C60.6257 60.58 59.6317 61.098 59.0997 61.994V60.636H58.1477V68H59.1417V64.136C59.1417 62.456 60.1357 61.476 61.7177 61.476C63.1177 61.476 63.9297 62.274 63.9297 63.828V68H64.9237V63.73C64.9237 61.616 63.6917 60.58 61.8997 60.58ZM73.5157 60.636V62.05C72.8997 61.084 71.8357 60.58 70.6037 60.58C68.5037 60.58 66.9077 62.022 66.9077 64.136C66.9077 66.25 68.5037 67.72 70.6037 67.72C71.8077 67.72 72.8577 67.23 73.4737 66.292V67.23C73.4737 69.05 72.6197 69.904 70.7577 69.904C69.6237 69.904 68.5597 69.526 67.8597 68.896L67.3557 69.652C68.1257 70.38 69.4417 70.786 70.7857 70.786C73.2217 70.786 74.4677 69.638 74.4677 67.104V60.636H73.5157ZM70.7017 66.838C69.0777 66.838 67.9157 65.732 67.9157 64.136C67.9157 62.54 69.0777 61.448 70.7017 61.448C72.3257 61.448 73.5017 62.54 73.5017 64.136C73.5017 65.732 72.3257 66.838 70.7017 66.838ZM85.4054 68.084C88.3454 68.084 90.5434 65.97 90.5434 63.1C90.5434 60.23 88.3454 58.116 85.4054 58.116C82.4374 58.116 80.2534 60.244 80.2534 63.1C80.2534 65.956 82.4374 68.084 85.4054 68.084ZM85.4054 67.16C83.0394 67.16 81.2754 65.438 81.2754 63.1C81.2754 60.762 83.0394 59.04 85.4054 59.04C87.7574 59.04 89.5074 60.762 89.5074 63.1C89.5074 65.438 87.7574 67.16 85.4054 67.16ZM96.4075 60.58C95.1335 60.58 94.1395 61.098 93.6075 61.994V60.636H92.6555V68H93.6495V64.136C93.6495 62.456 94.6435 61.476 96.2255 61.476C97.6255 61.476 98.4375 62.274 98.4375 63.828V68H99.4315V63.73C99.4315 61.616 98.1995 60.58 96.4075 60.58ZM102.13 68H103.124V57.612H102.13V68ZM106.394 59.026C106.814 59.026 107.122 58.704 107.122 58.298C107.122 57.92 106.8 57.612 106.394 57.612C105.988 57.612 105.666 57.934 105.666 58.312C105.666 58.704 105.988 59.026 106.394 59.026ZM105.89 68H106.884V60.636H105.89V68ZM113.402 60.58C112.128 60.58 111.134 61.098 110.602 61.994V60.636H109.65V68H110.644V64.136C110.644 62.456 111.638 61.476 113.22 61.476C114.62 61.476 115.432 62.274 115.432 63.828V68H116.426V63.73C116.426 61.616 115.194 60.58 113.402 60.58ZM125.578 64.318C125.578 62.106 124.08 60.58 122.008 60.58C119.936 60.58 118.41 62.134 118.41 64.318C118.41 66.502 119.978 68.07 122.274 68.07C123.436 68.07 124.458 67.65 125.116 66.866L124.556 66.222C123.996 66.866 123.198 67.188 122.302 67.188C120.692 67.188 119.516 66.166 119.404 64.626H125.564C125.564 64.514 125.578 64.402 125.578 64.318ZM122.008 61.434C123.45 61.434 124.5 62.442 124.626 63.884H119.404C119.53 62.442 120.58 61.434 122.008 61.434ZM41.918 85H43.01L38.53 75.2H37.508L33.028 85H34.106L35.282 82.382H40.742L41.918 85ZM35.66 81.542L38.012 76.278L40.364 81.542H35.66ZM48.2152 77.58C46.9972 77.58 45.9752 78.112 45.3732 79.092V77.636H44.4212V87.716H45.4152V83.614C46.0312 84.566 47.0392 85.07 48.2152 85.07C50.3152 85.07 51.8832 83.558 51.8832 81.318C51.8832 79.092 50.3152 77.58 48.2152 77.58ZM48.1452 84.188C46.5772 84.188 45.4012 83.04 45.4012 81.318C45.4012 79.61 46.5772 78.448 48.1452 78.448C49.6992 78.448 50.8892 79.61 50.8892 81.318C50.8892 83.04 49.6992 84.188 48.1452 84.188ZM57.7034 77.58C56.4854 77.58 55.4634 78.112 54.8614 79.092V77.636H53.9094V87.716H54.9034V83.614C55.5194 84.566 56.5274 85.07 57.7034 85.07C59.8034 85.07 61.3714 83.558 61.3714 81.318C61.3714 79.092 59.8034 77.58 57.7034 77.58ZM57.6334 84.188C56.0654 84.188 54.8894 83.04 54.8894 81.318C54.8894 79.61 56.0654 78.448 57.6334 78.448C59.1874 78.448 60.3774 79.61 60.3774 81.318C60.3774 83.04 59.1874 84.188 57.6334 84.188ZM63.3977 85H64.3917V74.612H63.3977V85ZM67.6615 76.026C68.0815 76.026 68.3895 75.704 68.3895 75.298C68.3895 74.92 68.0675 74.612 67.6615 74.612C67.2555 74.612 66.9335 74.934 66.9335 75.312C66.9335 75.704 67.2555 76.026 67.6615 76.026ZM67.1575 85H68.1515V77.636H67.1575V85ZM73.9693 85.07C75.2153 85.07 76.2653 84.566 76.8533 83.614L76.1113 83.11C75.6073 83.852 74.8233 84.188 73.9693 84.188C72.3593 84.188 71.1833 83.054 71.1833 81.318C71.1833 79.596 72.3593 78.448 73.9693 78.448C74.8233 78.448 75.6073 78.798 76.1113 79.54L76.8533 79.036C76.2653 78.07 75.2153 77.58 73.9693 77.58C71.7713 77.58 70.1753 79.12 70.1753 81.318C70.1753 83.516 71.7713 85.07 73.9693 85.07ZM81.3819 77.58C80.2199 77.58 79.1279 77.944 78.3859 78.574L78.8339 79.316C79.4359 78.784 80.3319 78.448 81.2839 78.448C82.6559 78.448 83.3699 79.134 83.3699 80.394V80.842H81.0319C78.9179 80.842 78.1899 81.794 78.1899 82.928C78.1899 84.202 79.2119 85.07 80.8779 85.07C82.0959 85.07 82.9639 84.608 83.4119 83.852V85H84.3639V80.436C84.3639 78.532 83.2859 77.58 81.3819 77.58ZM81.0319 84.286C79.8559 84.286 79.1699 83.754 79.1699 82.9C79.1699 82.144 79.6319 81.584 81.0599 81.584H83.3699V82.788C82.9779 83.754 82.1519 84.286 81.0319 84.286ZM90.5917 83.838C90.3117 84.09 89.9057 84.216 89.4997 84.216C88.6737 84.216 88.2257 83.74 88.2257 82.872V78.476H90.4657V77.636H88.2257V76.026H87.2317V77.636H85.9157V78.476H87.2317V82.928C87.2317 84.286 88.0017 85.07 89.3877 85.07C89.9617 85.07 90.5497 84.902 90.9417 84.552L90.5917 83.838ZM93.2552 76.026C93.6752 76.026 93.9832 75.704 93.9832 75.298C93.9832 74.92 93.6612 74.612 93.2552 74.612C92.8492 74.612 92.5272 74.934 92.5272 75.312C92.5272 75.704 92.8492 76.026 93.2552 76.026ZM92.7512 85H93.7452V77.636H92.7512V85ZM99.521 85.07C101.677 85.07 103.259 83.502 103.259 81.318C103.259 79.134 101.677 77.58 99.521 77.58C97.365 77.58 95.769 79.134 95.769 81.318C95.769 83.502 97.365 85.07 99.521 85.07ZM99.521 84.188C97.953 84.188 96.777 83.04 96.777 81.318C96.777 79.596 97.953 78.448 99.521 78.448C101.089 78.448 102.251 79.596 102.251 81.318C102.251 83.04 101.089 84.188 99.521 84.188ZM109.04 77.58C107.766 77.58 106.772 78.098 106.24 78.994V77.636H105.288V85H106.282V81.136C106.282 79.456 107.276 78.476 108.858 78.476C110.258 78.476 111.07 79.274 111.07 80.828V85H112.064V80.73C112.064 78.616 110.832 77.58 109.04 77.58ZM41.316 93.096V92.2H34.596V102H35.632V97.842H40.7V96.946H35.632V93.096H41.316ZM46.0093 102.07C48.1653 102.07 49.7473 100.502 49.7473 98.318C49.7473 96.134 48.1653 94.58 46.0093 94.58C43.8533 94.58 42.2573 96.134 42.2573 98.318C42.2573 100.502 43.8533 102.07 46.0093 102.07ZM46.0093 101.188C44.4413 101.188 43.2653 100.04 43.2653 98.318C43.2653 96.596 44.4413 95.448 46.0093 95.448C47.5773 95.448 48.7393 96.596 48.7393 98.318C48.7393 100.04 47.5773 101.188 46.0093 101.188ZM52.7286 96.078V94.636H51.7766V102H52.7706V98.248C52.7706 96.512 53.7086 95.532 55.2486 95.532C55.3186 95.532 55.4026 95.546 55.4866 95.546V94.58C54.1286 94.58 53.1906 95.098 52.7286 96.078ZM66.4704 94.58C65.1404 94.58 64.0904 95.182 63.5584 96.134C63.1104 95.098 62.1584 94.58 60.9404 94.58C59.7084 94.58 58.7564 95.098 58.2384 95.98V94.636H57.2864V102H58.2804V98.136C58.2804 96.456 59.2464 95.476 60.7444 95.476C62.0884 95.476 62.8724 96.274 62.8724 97.828V102H63.8664V98.136C63.8664 96.456 64.8184 95.476 66.3304 95.476C67.6604 95.476 68.4444 96.274 68.4444 97.828V102H69.4384V97.73C69.4384 95.616 68.2624 94.58 66.4704 94.58Z" fill="white"/>
</svg>
