<svg width="151" height="149" viewBox="0 0 151 149" fill="none" xmlns="http://www.w3.org/2000/svg">
<circle cx="76.5" cy="74.5" r="74.5" fill="#115BA9"/>
<circle cx="15" cy="31" r="15" fill="#509E82"/>
<path d="M10.634 36.084C12.902 36.084 14.554 34.222 14.554 31.1C14.554 27.978 12.902 26.116 10.634 26.116C8.366 26.116 6.728 27.978 6.728 31.1C6.728 34.222 8.366 36.084 10.634 36.084ZM10.634 35.16C8.926 35.16 7.75 33.718 7.75 31.1C7.75 28.482 8.926 27.04 10.634 27.04C12.342 27.04 13.518 28.482 13.518 31.1C13.518 33.718 12.342 35.16 10.634 35.16ZM19.1928 30.4L21.9648 26.914V26.2H15.6648V27.096H20.6768L17.9608 30.498V31.24H18.6608C20.4808 31.24 21.3068 32.01 21.3068 33.186C21.3068 34.404 20.4108 35.16 18.7868 35.16C17.5128 35.16 16.3788 34.684 15.7488 34.026L15.2588 34.824C16.0148 35.594 17.3728 36.084 18.7868 36.084C21.1528 36.084 22.3428 34.824 22.3428 33.186C22.3428 31.618 21.2928 30.512 19.1928 30.4Z" fill="white"/>
<path d="M39.382 65.168C42.182 65.168 43.54 63.768 43.54 62.13C43.54 58.532 37.842 59.778 37.842 57.972C37.842 57.356 38.36 56.852 39.704 56.852C40.572 56.852 41.51 57.104 42.42 57.622L43.12 55.9C42.21 55.326 40.95 55.032 39.718 55.032C36.932 55.032 35.588 56.418 35.588 58.084C35.588 61.724 41.286 60.464 41.286 62.298C41.286 62.9 40.74 63.348 39.396 63.348C38.22 63.348 36.988 62.928 36.162 62.326L35.392 64.034C36.26 64.706 37.828 65.168 39.382 65.168ZM49.2057 63.096C48.9677 63.278 48.6457 63.376 48.3237 63.376C47.7357 63.376 47.3857 63.026 47.3857 62.382V59.316H49.2617V57.636H47.3857V55.802H45.2017V57.636H44.0397V59.316H45.2017V62.41C45.2017 64.202 46.2377 65.112 48.0157 65.112C48.6877 65.112 49.3457 64.958 49.7937 64.636L49.2057 63.096ZM58.1653 61.262C58.1653 58.84 56.4573 57.356 54.2453 57.356C51.9493 57.356 50.2273 58.98 50.2273 61.234C50.2273 63.474 51.9213 65.112 54.5253 65.112C55.8833 65.112 56.9333 64.692 57.6333 63.894L56.4713 62.634C55.9533 63.124 55.3793 63.362 54.5813 63.362C53.4333 63.362 52.6353 62.788 52.4253 61.85H58.1233C58.1373 61.668 58.1653 61.43 58.1653 61.262ZM54.2593 59.008C55.2393 59.008 55.9533 59.624 56.1073 60.576H52.3973C52.5513 59.61 53.2653 59.008 54.2593 59.008ZM64.0713 57.356C63.0633 57.356 62.2513 57.678 61.7053 58.336V57.468H59.6193V67.716H61.8033V64.202C62.3633 64.818 63.1333 65.112 64.0713 65.112C66.1853 65.112 67.8233 63.6 67.8233 61.234C67.8233 58.868 66.1853 57.356 64.0713 57.356ZM63.6933 63.32C62.6013 63.32 61.7753 62.536 61.7753 61.234C61.7753 59.932 62.6013 59.148 63.6933 59.148C64.7853 59.148 65.6113 59.932 65.6113 61.234C65.6113 62.536 64.7853 63.32 63.6933 63.32ZM77.3662 59.19L79.5782 56.67V55.2H72.7182V57.02H76.8902L74.8742 59.302V60.8H75.9102C77.1982 60.8 77.7442 61.262 77.7442 62.004C77.7442 62.802 77.0442 63.264 75.9102 63.264C74.8882 63.264 73.8522 62.942 73.1102 62.382L72.2282 64.118C73.1802 64.79 74.5942 65.168 75.9662 65.168C78.7522 65.168 80.0262 63.656 80.0262 62.004C80.0262 60.562 79.1302 59.47 77.3662 59.19ZM82.3613 60.086C83.1173 60.086 83.7193 59.512 83.7193 58.714C83.7193 57.902 83.1173 57.37 82.3613 57.37C81.6053 57.37 81.0033 57.902 81.0033 58.714C81.0033 59.512 81.6053 60.086 82.3613 60.086ZM82.3613 65.112C83.1173 65.112 83.7193 64.538 83.7193 63.74C83.7193 62.928 83.1173 62.396 82.3613 62.396C81.6053 62.396 81.0033 62.928 81.0033 63.74C81.0033 64.538 81.6053 65.112 82.3613 65.112ZM45.92 72.2L41.706 79.466L37.45 72.2H36.596V82H37.59V74.202L41.44 80.754H41.93L45.78 74.16V82H46.774V72.2H45.92ZM52.7671 82.07C54.9231 82.07 56.5051 80.502 56.5051 78.318C56.5051 76.134 54.9231 74.58 52.7671 74.58C50.6111 74.58 49.0151 76.134 49.0151 78.318C49.0151 80.502 50.6111 82.07 52.7671 82.07ZM52.7671 81.188C51.1991 81.188 50.0231 80.04 50.0231 78.318C50.0231 76.596 51.1991 75.448 52.7671 75.448C54.3351 75.448 55.4971 76.596 55.4971 78.318C55.4971 80.04 54.3351 81.188 52.7671 81.188ZM64.2604 71.612V76.036C63.6444 75.084 62.6364 74.58 61.4604 74.58C59.3604 74.58 57.7924 76.092 57.7924 78.318C57.7924 80.544 59.3604 82.07 61.4604 82.07C62.6784 82.07 63.7004 81.538 64.3024 80.544V82H65.2544V71.612H64.2604ZM61.5444 81.188C59.9764 81.188 58.8004 80.04 58.8004 78.318C58.8004 76.596 59.9764 75.448 61.5444 75.448C63.0984 75.448 64.2744 76.596 64.2744 78.318C64.2744 80.04 63.0984 81.188 61.5444 81.188ZM74.4487 78.318C74.4487 76.106 72.9507 74.58 70.8787 74.58C68.8067 74.58 67.2807 76.134 67.2807 78.318C67.2807 80.502 68.8487 82.07 71.1447 82.07C72.3067 82.07 73.3287 81.65 73.9867 80.866L73.4267 80.222C72.8667 80.866 72.0687 81.188 71.1727 81.188C69.5627 81.188 68.3867 80.166 68.2747 78.626H74.4347C74.4347 78.514 74.4487 78.402 74.4487 78.318ZM70.8787 75.434C72.3207 75.434 73.3707 76.442 73.4967 77.884H68.2747C68.4007 76.442 69.4507 75.434 70.8787 75.434ZM83.146 82.07C85.302 82.07 86.884 80.502 86.884 78.318C86.884 76.134 85.302 74.58 83.146 74.58C80.99 74.58 79.394 76.134 79.394 78.318C79.394 80.502 80.99 82.07 83.146 82.07ZM83.146 81.188C81.578 81.188 80.402 80.04 80.402 78.318C80.402 76.596 81.578 75.448 83.146 75.448C84.714 75.448 85.876 76.596 85.876 78.318C85.876 80.04 84.714 81.188 83.146 81.188ZM91.3493 72.382C91.7693 72.382 92.1613 72.508 92.4413 72.746L92.7773 72.004C92.4133 71.696 91.8533 71.542 91.3073 71.542C89.8653 71.542 89.0813 72.41 89.0813 73.726V74.636H87.7653V75.476H89.0813V82H90.0753V75.476H92.3153V74.636H90.0473V73.768C90.0473 72.858 90.4953 72.382 91.3493 72.382ZM40.264 89.2H36.596V99H37.632V95.906H40.264C42.756 95.906 44.268 94.646 44.268 92.56C44.268 90.46 42.756 89.2 40.264 89.2ZM40.236 94.996H37.632V90.096H40.236C42.196 90.096 43.232 90.992 43.232 92.56C43.232 94.1 42.196 94.996 40.236 94.996ZM48.8058 91.58C47.6438 91.58 46.5518 91.944 45.8098 92.574L46.2578 93.316C46.8598 92.784 47.7558 92.448 48.7078 92.448C50.0798 92.448 50.7938 93.134 50.7938 94.394V94.842H48.4558C46.3418 94.842 45.6138 95.794 45.6138 96.928C45.6138 98.202 46.6358 99.07 48.3018 99.07C49.5198 99.07 50.3878 98.608 50.8358 97.852V99H51.7878V94.436C51.7878 92.532 50.7098 91.58 48.8058 91.58ZM48.4558 98.286C47.2798 98.286 46.5938 97.754 46.5938 96.9C46.5938 96.144 47.0558 95.584 48.4838 95.584H50.7938V96.788C50.4018 97.754 49.5758 98.286 48.4558 98.286ZM59.5588 91.636L56.7868 97.894L54.0148 91.636H52.9788L56.2688 98.986L55.9468 99.7C55.5268 100.624 55.0788 100.932 54.4208 100.932C53.8888 100.932 53.4408 100.736 53.0768 100.372L52.6148 101.114C53.0628 101.562 53.7208 101.786 54.4068 101.786C55.4568 101.786 56.2408 101.324 56.8568 99.882L60.5388 91.636H59.5588ZM71.1227 91.58C69.7927 91.58 68.7427 92.182 68.2107 93.134C67.7627 92.098 66.8107 91.58 65.5927 91.58C64.3607 91.58 63.4087 92.098 62.8907 92.98V91.636H61.9387V99H62.9327V95.136C62.9327 93.456 63.8987 92.476 65.3967 92.476C66.7407 92.476 67.5247 93.274 67.5247 94.828V99H68.5187V95.136C68.5187 93.456 69.4707 92.476 70.9827 92.476C72.3127 92.476 73.0967 93.274 73.0967 94.828V99H74.0907V94.73C74.0907 92.616 72.9147 91.58 71.1227 91.58ZM83.2397 95.318C83.2397 93.106 81.7417 91.58 79.6697 91.58C77.5977 91.58 76.0717 93.134 76.0717 95.318C76.0717 97.502 77.6397 99.07 79.9357 99.07C81.0977 99.07 82.1197 98.65 82.7777 97.866L82.2177 97.222C81.6577 97.866 80.8597 98.188 79.9637 98.188C78.3537 98.188 77.1777 97.166 77.0657 95.626H83.2257C83.2257 95.514 83.2397 95.402 83.2397 95.318ZM79.6697 92.434C81.1117 92.434 82.1617 93.442 82.2877 94.884H77.0657C77.1917 93.442 78.2417 92.434 79.6697 92.434ZM89.015 91.58C87.741 91.58 86.747 92.098 86.215 92.994V91.636H85.263V99H86.257V95.136C86.257 93.456 87.251 92.476 88.833 92.476C90.233 92.476 91.045 93.274 91.045 94.828V99H92.039V94.73C92.039 92.616 90.807 91.58 89.015 91.58ZM98.2656 97.838C97.9856 98.09 97.5796 98.216 97.1736 98.216C96.3476 98.216 95.8996 97.74 95.8996 96.872V92.476H98.1396V91.636H95.8996V90.026H94.9056V91.636H93.5896V92.476H94.9056V96.928C94.9056 98.286 95.6756 99.07 97.0616 99.07C97.6356 99.07 98.2236 98.902 98.6156 98.552L98.2656 97.838Z" fill="white"/>
</svg>
