<svg width="151" height="149" viewBox="0 0 151 149" fill="none" xmlns="http://www.w3.org/2000/svg">
<circle cx="76.5" cy="74.5" r="74.5" fill="#115BA9"/>
<circle cx="15" cy="31" r="15" fill="#509E82"/>
<path d="M10.634 36.084C12.902 36.084 14.554 34.222 14.554 31.1C14.554 27.978 12.902 26.116 10.634 26.116C8.366 26.116 6.728 27.978 6.728 31.1C6.728 34.222 8.366 36.084 10.634 36.084ZM10.634 35.16C8.926 35.16 7.75 33.718 7.75 31.1C7.75 28.482 8.926 27.04 10.634 27.04C12.342 27.04 13.518 28.482 13.518 31.1C13.518 33.718 12.342 35.16 10.634 35.16ZM15.3682 26.2V27.096H17.6782V36H18.6862V26.2H15.3682Z" fill="white"/>
<path d="M39.382 57.168C42.182 57.168 43.54 55.768 43.54 54.13C43.54 50.532 37.842 51.778 37.842 49.972C37.842 49.356 38.36 48.852 39.704 48.852C40.572 48.852 41.51 49.104 42.42 49.622L43.12 47.9C42.21 47.326 40.95 47.032 39.718 47.032C36.932 47.032 35.588 48.418 35.588 50.084C35.588 53.724 41.286 52.464 41.286 54.298C41.286 54.9 40.74 55.348 39.396 55.348C38.22 55.348 36.988 54.928 36.162 54.326L35.392 56.034C36.26 56.706 37.828 57.168 39.382 57.168ZM49.2057 55.096C48.9677 55.278 48.6457 55.376 48.3237 55.376C47.7357 55.376 47.3857 55.026 47.3857 54.382V51.316H49.2617V49.636H47.3857V47.802H45.2017V49.636H44.0397V51.316H45.2017V54.41C45.2017 56.202 46.2377 57.112 48.0157 57.112C48.6877 57.112 49.3457 56.958 49.7937 56.636L49.2057 55.096ZM58.1653 53.262C58.1653 50.84 56.4573 49.356 54.2453 49.356C51.9493 49.356 50.2273 50.98 50.2273 53.234C50.2273 55.474 51.9213 57.112 54.5253 57.112C55.8833 57.112 56.9333 56.692 57.6333 55.894L56.4713 54.634C55.9533 55.124 55.3793 55.362 54.5813 55.362C53.4333 55.362 52.6353 54.788 52.4253 53.85H58.1233C58.1373 53.668 58.1653 53.43 58.1653 53.262ZM54.2593 51.008C55.2393 51.008 55.9533 51.624 56.1073 52.576H52.3973C52.5513 51.61 53.2653 51.008 54.2593 51.008ZM64.0713 49.356C63.0633 49.356 62.2513 49.678 61.7053 50.336V49.468H59.6193V59.716H61.8033V56.202C62.3633 56.818 63.1333 57.112 64.0713 57.112C66.1853 57.112 67.8233 55.6 67.8233 53.234C67.8233 50.868 66.1853 49.356 64.0713 49.356ZM63.6933 55.32C62.6013 55.32 61.7753 54.536 61.7753 53.234C61.7753 51.932 62.6013 51.148 63.6933 51.148C64.7853 51.148 65.6113 51.932 65.6113 53.234C65.6113 54.536 64.7853 55.32 63.6933 55.32ZM72.3402 47.2V49.02H74.3002V57H76.5682V47.2H72.3402ZM79.5586 52.086C80.3146 52.086 80.9166 51.512 80.9166 50.714C80.9166 49.902 80.3146 49.37 79.5586 49.37C78.8026 49.37 78.2006 49.902 78.2006 50.714C78.2006 51.512 78.8026 52.086 79.5586 52.086ZM79.5586 57.112C80.3146 57.112 80.9166 56.538 80.9166 55.74C80.9166 54.928 80.3146 54.396 79.5586 54.396C78.8026 54.396 78.2006 54.928 78.2006 55.74C78.2006 56.538 78.8026 57.112 79.5586 57.112ZM43.764 64.2V72.152L37.45 64.2H36.596V74H37.632V66.048L43.932 74H44.786V64.2H43.764ZM54.2007 70.318C54.2007 68.106 52.7027 66.58 50.6307 66.58C48.5587 66.58 47.0327 68.134 47.0327 70.318C47.0327 72.502 48.6007 74.07 50.8967 74.07C52.0587 74.07 53.0807 73.65 53.7387 72.866L53.1787 72.222C52.6187 72.866 51.8207 73.188 50.9247 73.188C49.3147 73.188 48.1387 72.166 48.0267 70.626H54.1867C54.1867 70.514 54.2007 70.402 54.2007 70.318ZM50.6307 67.434C52.0727 67.434 53.1227 68.442 53.2487 69.884H48.0267C48.1527 68.442 49.2027 67.434 50.6307 67.434ZM65.9852 66.636L63.6472 72.894L61.2952 66.636H60.4412L58.0752 72.894L55.7652 66.636H54.8132L57.5852 74H58.5232L60.8472 67.966L63.1712 74H64.1092L66.8952 66.636H65.9852ZM76.2139 74.084C78.7199 74.084 80.2319 72.628 80.2319 69.814V64.2H79.2239V69.772C79.2239 72.096 78.1319 73.16 76.2139 73.16C74.3099 73.16 73.2179 72.096 73.2179 69.772V64.2H72.1819V69.814C72.1819 72.628 73.7079 74.084 76.2139 74.084ZM85.1178 74.07C87.0358 74.07 88.1558 73.244 88.1558 71.97C88.1558 69.142 83.3818 70.64 83.3818 68.652C83.3818 67.952 83.9698 67.434 85.2998 67.434C86.0558 67.434 86.8258 67.616 87.4698 68.064L87.9038 67.266C87.2878 66.846 86.2518 66.58 85.2998 66.58C83.4238 66.58 82.3878 67.476 82.3878 68.68C82.3878 71.592 87.1618 70.08 87.1618 71.998C87.1618 72.726 86.5878 73.202 85.1878 73.202C84.1518 73.202 83.1578 72.838 82.5698 72.376L82.1218 73.16C82.7238 73.678 83.8998 74.07 85.1178 74.07ZM96.4194 70.318C96.4194 68.106 94.9214 66.58 92.8494 66.58C90.7774 66.58 89.2514 68.134 89.2514 70.318C89.2514 72.502 90.8194 74.07 93.1154 74.07C94.2774 74.07 95.2994 73.65 95.9574 72.866L95.3974 72.222C94.8374 72.866 94.0394 73.188 93.1434 73.188C91.5334 73.188 90.3574 72.166 90.2454 70.626H96.4054C96.4054 70.514 96.4194 70.402 96.4194 70.318ZM92.8494 67.434C94.2914 67.434 95.3414 68.442 95.4674 69.884H90.2454C90.3714 68.442 91.4214 67.434 92.8494 67.434ZM99.3946 68.078V66.636H98.4426V74H99.4366V70.248C99.4366 68.512 100.375 67.532 101.915 67.532C101.985 67.532 102.069 67.546 102.153 67.546V66.58C100.795 66.58 99.8566 67.098 99.3946 68.078ZM44.422 91L42.028 87.64C43.456 87.178 44.268 86.1 44.268 84.56C44.268 82.46 42.756 81.2 40.264 81.2H36.596V91H37.632V87.892H40.264C40.544 87.892 40.796 87.878 41.048 87.85L43.288 91H44.422ZM40.236 87.01H37.632V82.096H40.236C42.196 82.096 43.232 82.992 43.232 84.56C43.232 86.1 42.196 87.01 40.236 87.01ZM52.9292 87.318C52.9292 85.106 51.4312 83.58 49.3592 83.58C47.2872 83.58 45.7612 85.134 45.7612 87.318C45.7612 89.502 47.3292 91.07 49.6252 91.07C50.7872 91.07 51.8092 90.65 52.4672 89.866L51.9072 89.222C51.3472 89.866 50.5492 90.188 49.6532 90.188C48.0432 90.188 46.8672 89.166 46.7552 87.626H52.9152C52.9152 87.514 52.9292 87.402 52.9292 87.318ZM49.3592 84.434C50.8012 84.434 51.8512 85.442 51.9772 86.884H46.7552C46.8812 85.442 47.9312 84.434 49.3592 84.434ZM60.8184 83.636V85.05C60.2024 84.084 59.1384 83.58 57.9064 83.58C55.8064 83.58 54.2104 85.022 54.2104 87.136C54.2104 89.25 55.8064 90.72 57.9064 90.72C59.1104 90.72 60.1604 90.23 60.7764 89.292V90.23C60.7764 92.05 59.9224 92.904 58.0604 92.904C56.9264 92.904 55.8624 92.526 55.1624 91.896L54.6584 92.652C55.4284 93.38 56.7444 93.786 58.0884 93.786C60.5244 93.786 61.7704 92.638 61.7704 90.104V83.636H60.8184ZM58.0044 89.838C56.3804 89.838 55.2184 88.732 55.2184 87.136C55.2184 85.54 56.3804 84.448 58.0044 84.448C59.6284 84.448 60.8044 85.54 60.8044 87.136C60.8044 88.732 59.6284 89.838 58.0044 89.838ZM65.0541 82.026C65.4741 82.026 65.7821 81.704 65.7821 81.298C65.7821 80.92 65.4601 80.612 65.0541 80.612C64.6481 80.612 64.3261 80.934 64.3261 81.312C64.3261 81.704 64.6481 82.026 65.0541 82.026ZM64.5501 91H65.5441V83.636H64.5501V91ZM70.2838 91.07C72.2018 91.07 73.3218 90.244 73.3218 88.97C73.3218 86.142 68.5478 87.64 68.5478 85.652C68.5478 84.952 69.1358 84.434 70.4658 84.434C71.2218 84.434 71.9918 84.616 72.6358 85.064L73.0698 84.266C72.4538 83.846 71.4178 83.58 70.4658 83.58C68.5898 83.58 67.5538 84.476 67.5538 85.68C67.5538 88.592 72.3278 87.08 72.3278 88.998C72.3278 89.726 71.7538 90.202 70.3538 90.202C69.3178 90.202 68.3238 89.838 67.7358 89.376L67.2878 90.16C67.8898 90.678 69.0658 91.07 70.2838 91.07ZM78.6874 89.838C78.4074 90.09 78.0014 90.216 77.5954 90.216C76.7694 90.216 76.3214 89.74 76.3214 88.872V84.476H78.5614V83.636H76.3214V82.026H75.3274V83.636H74.0114V84.476H75.3274V88.928C75.3274 90.286 76.0974 91.07 77.4834 91.07C78.0574 91.07 78.6454 90.902 79.0374 90.552L78.6874 89.838ZM81.7989 85.078V83.636H80.8469V91H81.8409V87.248C81.8409 85.512 82.7789 84.532 84.3189 84.532C84.3889 84.532 84.4729 84.546 84.5569 84.546V83.58C83.1989 83.58 82.2609 84.098 81.7989 85.078ZM88.919 83.58C87.757 83.58 86.665 83.944 85.923 84.574L86.371 85.316C86.973 84.784 87.869 84.448 88.821 84.448C90.193 84.448 90.907 85.134 90.907 86.394V86.842H88.569C86.455 86.842 85.727 87.794 85.727 88.928C85.727 90.202 86.749 91.07 88.415 91.07C89.633 91.07 90.501 90.608 90.949 89.852V91H91.901V86.436C91.901 84.532 90.823 83.58 88.919 83.58ZM88.569 90.286C87.393 90.286 86.707 89.754 86.707 88.9C86.707 88.144 87.169 87.584 88.597 87.584H90.907V88.788C90.515 89.754 89.689 90.286 88.569 90.286ZM98.1288 89.838C97.8488 90.09 97.4428 90.216 97.0368 90.216C96.2108 90.216 95.7628 89.74 95.7628 88.872V84.476H98.0028V83.636H95.7628V82.026H94.7688V83.636H93.4528V84.476H94.7688V88.928C94.7688 90.286 95.5388 91.07 96.9248 91.07C97.4988 91.07 98.0868 90.902 98.4788 90.552L98.1288 89.838ZM100.792 82.026C101.212 82.026 101.52 81.704 101.52 81.298C101.52 80.92 101.198 80.612 100.792 80.612C100.386 80.612 100.064 80.934 100.064 81.312C100.064 81.704 100.386 82.026 100.792 82.026ZM100.288 91H101.282V83.636H100.288V91ZM107.058 91.07C109.214 91.07 110.796 89.502 110.796 87.318C110.796 85.134 109.214 83.58 107.058 83.58C104.902 83.58 103.306 85.134 103.306 87.318C103.306 89.502 104.902 91.07 107.058 91.07ZM107.058 90.188C105.49 90.188 104.314 89.04 104.314 87.318C104.314 85.596 105.49 84.448 107.058 84.448C108.626 84.448 109.788 85.596 109.788 87.318C109.788 89.04 108.626 90.188 107.058 90.188ZM116.577 83.58C115.303 83.58 114.309 84.098 113.777 84.994V83.636H112.825V91H113.819V87.136C113.819 85.456 114.813 84.476 116.395 84.476C117.795 84.476 118.607 85.274 118.607 86.828V91H119.601V86.73C119.601 84.616 118.369 83.58 116.577 83.58Z" fill="white"/>
</svg>
