<svg width="19" height="16" viewBox="0 0 19 16" fill="none" xmlns="http://www.w3.org/2000/svg">
<path d="M18 2.63591C17.3748 2.91293 16.7033 3.10011 15.9972 3.18471C16.7175 2.75346 17.27 2.06914 17.5306 1.25456C16.8567 1.65436 16.1103 1.94486 15.3159 2.10059C14.6795 1.42376 13.7736 1 12.7703 1C10.8447 1 9.28288 2.56179 9.28288 4.48895C9.28288 4.76147 9.31432 5.02651 9.37272 5.28257C6.473 5.13657 3.90421 3.74773 2.1837 1.63789C1.88422 2.1545 1.71201 2.75346 1.71201 3.39135C1.71201 4.60125 2.3282 5.66965 3.26332 6.29481C2.69132 6.27609 2.15375 6.11962 1.68356 5.85832V5.90324C1.68356 7.59306 2.88523 9.00286 4.48146 9.32331C4.18797 9.40267 3.88025 9.4446 3.5628 9.4446C3.33819 9.4446 3.11882 9.42363 2.90619 9.3832C3.35017 10.7683 4.63794 11.7775 6.16454 11.8045C4.97036 12.7404 3.46622 13.2982 1.83256 13.2982C1.55104 13.2982 1.27328 13.2817 1 13.2495C2.54382 14.24 4.37664 14.8165 6.34572 14.8165C12.7621 14.8165 16.2698 9.50225 16.2698 4.89324C16.2698 4.7435 16.266 4.59227 16.2593 4.44253C16.9406 3.94988 17.5321 3.3367 17.9985 2.63816L18 2.63591Z" stroke="white" strokeLinejoin="round"/>
</svg>
