<svg width="25" height="25" viewBox="0 0 25 25" fill="none" xmlns="http://www.w3.org/2000/svg">
<path fillRule="evenodd" clipRule="evenodd" d="M12.5015 0C5.60268 0 0 5.6 0 12.498C0 19.3966 5.60268 25 12.5015 25C19.4003 25 25 19.3966 25 12.498C25 5.59951 19.3998 0 12.5015 0ZM12.5015 0.862069C18.9342 0.862069 24.1379 6.06601 24.1379 12.498C24.1379 15.17 23.2394 17.6305 21.7284 19.5941C20.392 16.7348 17.8165 14.682 14.7961 13.9837C16.2666 13.1711 17.2645 11.6042 17.2645 9.80887C17.2645 7.18187 15.1281 5.04227 12.501 5.04227C9.87389 5.04227 7.73499 7.18187 7.73499 9.80887C7.73499 11.6046 8.73428 13.1721 10.206 13.9845C7.18614 14.6831 4.60875 16.7351 3.27126 19.5924C1.76046 17.6291 0.861807 15.1695 0.861807 12.4978C0.861807 6.06532 6.06842 0.861872 12.5012 0.861872L12.5015 0.862069ZM12.5015 5.90591C14.6627 5.90591 16.4062 7.64852 16.4062 9.80966C16.4062 11.9708 14.6625 13.7142 12.5015 13.7142C10.3403 13.7142 8.59758 11.9706 8.59758 9.80966C8.59758 7.64852 10.3403 5.90591 12.5015 5.90591ZM12.5015 14.5857C16.2776 14.5857 19.6697 16.8594 21.1131 20.3305C18.9856 22.67 15.9169 24.1375 12.5015 24.1375C9.08597 24.1375 6.01649 22.6702 3.88784 20.3305C5.33149 16.8592 8.72488 14.5857 12.5015 14.5857Z" fill="white"/>
</svg>
